{
  "accessors": [
    {
      "bufferView": 2,
      "componentType": 5126,
      "count": 32212,
      "max": [
        76.65138244628906,
        23.06977081298828,
        36.60722351074219
      ],
      "min": [
        -54.77587890625,
        -35.68479537963867,
        -197.45181274414063
      ],
      "type": "VEC3"
    },
    {
      "bufferView": 2,
      "byteOffset": 386544,
      "componentType": 5126,
      "count": 32212,
      "max": [
        1.0,
        1.0,
        1.0
      ],
      "min": [
        -1.0,
        -1.0,
        -1.0
      ],
      "type": "VEC3"
    },
    {
      "bufferView": 3,
      "componentType": 5126,
      "count": 32212,
      "max": [
        1.0,
        1.0,
        1.0,
        1.0
      ],
      "min": [
        -1.0,
        -1.0,
        -1.0,
        -1.0
      ],
      "type": "VEC4"
    },
    {
      "bufferView": 1,
      "componentType": 5126,
      "count": 32212,
      "max": [
        0.999500036239624,
        0.9886455535888672
      ],
      "min": [
        0.0005000000237487257,
        0.0005000000237487257
      ],
      "type": "VEC2"
    },
    {
      "bufferView": 1,
      "byteOffset": 257696,
      "componentType": 5126,
      "count": 32212,
      "max": [
        0.999500036239624,
        0.9886455535888672
      ],
      "min": [
        0.0005000000237487257,
        0.0005000000237487257
      ],
      "type": "VEC2"
    },
    {
      "bufferView": 1,
      "byteOffset": 515392,
      "componentType": 5126,
      "count": 32212,
      "max": [
        0.999500036239624,
        0.9886455535888672
      ],
      "min": [
        0.0005000000237487257,
        0.0005000000237487257
      ],
      "type": "VEC2"
    },
    {
      "bufferView": 1,
      "byteOffset": 773088,
      "componentType": 5126,
      "count": 32212,
      "max": [
        0.999500036239624,
        0.9886455535888672
      ],
      "min": [
        0.0005000000237487257,
        0.0005000000237487257
      ],
      "type": "VEC2"
    },
    {
      "bufferView": 1,
      "byteOffset": 1030784,
      "componentType": 5126,
      "count": 32212,
      "max": [
        0.999500036239624,
        0.9886455535888672
      ],
      "min": [
        0.0005000000237487257,
        0.0005000000237487257
      ],
      "type": "VEC2"
    },
    {
      "bufferView": 1,
      "byteOffset": 1288480,
      "componentType": 5126,
      "count": 32212,
      "max": [
        0.999500036239624,
        0.9886455535888672
      ],
      "min": [
        0.0005000000237487257,
        0.0005000000237487257
      ],
      "type": "VEC2"
    },
    {
      "bufferView": 1,
      "byteOffset": 1546176,
      "componentType": 5126,
      "count": 32212,
      "max": [
        0.999500036239624,
        0.9886455535888672
      ],
      "min": [
        0.0005000000237487257,
        0.0005000000237487257
      ],
      "type": "VEC2"
    },
    {
      "bufferView": 1,
      "byteOffset": 1803872,
      "componentType": 5126,
      "count": 32212,
      "max": [
        0.999500036239624,
        0.9886455535888672
      ],
      "min": [
        0.0005000000237487257,
        0.0005000000237487257
      ],
      "type": "VEC2"
    },
    {
      "bufferView": 1,
      "byteOffset": 2061568,
      "componentType": 5126,
      "count": 32212,
      "max": [
        0.999500036239624,
        0.9886455535888672
      ],
      "min": [
        0.0005000000237487257,
        0.0005000000237487257
      ],
      "type": "VEC2"
    },
    {
      "bufferView": 1,
      "byteOffset": 2319264,
      "componentType": 5126,
      "count": 32212,
      "max": [
        0.999500036239624,
        0.9886455535888672
      ],
      "min": [
        0.0005000000237487257,
        0.0005000000237487257
      ],
      "type": "VEC2"
    },
    {
      "bufferView": 0,
      "componentType": 5125,
      "count": 87960,
      "type": "SCALAR"
    },
    {
      "bufferView": 2,
      "byteOffset": 773088,
      "componentType": 5126,
      "count": 702,
      "max": [
        25.3082275390625,
        21.533992767333984,
        -58.332664489746094
      ],
      "min": [
        -2.738020896911621,
        -0.3567233085632324,
        -98.98442840576172
      ],
      "type": "VEC3"
    },
    {
      "bufferView": 2,
      "byteOffset": 781512,
      "componentType": 5126,
      "count": 702,
      "max": [
        0.9998857975006104,
        0.9950166940689087,
        0.9989884495735168
      ],
      "min": [
        -0.999896228313446,
        -0.9935853481292725,
        -0.9896634221076965
      ],
      "type": "VEC3"
    },
    {
      "bufferView": 3,
      "byteOffset": 515392,
      "componentType": 5126,
      "count": 702,
      "max": [
        1.0,
        0.9998659491539001,
        0.9993288516998291,
        1.0
      ],
      "min": [
        -0.9998947381973267,
        -0.9939439296722412,
        -0.9999982714653015,
        -1.0
      ],
      "type": "VEC4"
    },
    {
      "bufferView": 1,
      "byteOffset": 2576960,
      "componentType": 5126,
      "count": 702,
      "max": [
        0.8989009261131287,
        0.9701195359230042
      ],
      "min": [
        0.20105814933776855,
        0.03870155289769173
      ],
      "type": "VEC2"
    },
    {
      "bufferView": 1,
      "byteOffset": 2582576,
      "componentType": 5126,
      "count": 702,
      "max": [
        0.8989009261131287,
        0.9701195359230042
      ],
      "min": [
        0.20105814933776855,
        0.03870155289769173
      ],
      "type": "VEC2"
    },
    {
      "bufferView": 1,
      "byteOffset": 2588192,
      "componentType": 5126,
      "count": 702,
      "max": [
        0.8989009261131287,
        0.9701195359230042
      ],
      "min": [
        0.20105814933776855,
        0.03870155289769173
      ],
      "type": "VEC2"
    },
    {
      "bufferView": 1,
      "byteOffset": 2593808,
      "componentType": 5126,
      "count": 702,
      "max": [
        0.8989009261131287,
        0.9701195359230042
      ],
      "min": [
        0.20105814933776855,
        0.03870155289769173
      ],
      "type": "VEC2"
    },
    {
      "bufferView": 1,
      "byteOffset": 2599424,
      "componentType": 5126,
      "count": 702,
      "max": [
        0.8989009261131287,
        0.9701195359230042
      ],
      "min": [
        0.20105814933776855,
        0.03870155289769173
      ],
      "type": "VEC2"
    },
    {
      "bufferView": 1,
      "byteOffset": 2605040,
      "componentType": 5126,
      "count": 702,
      "max": [
        0.8989009261131287,
        0.9701195359230042
      ],
      "min": [
        0.20105814933776855,
        0.03870155289769173
      ],
      "type": "VEC2"
    },
    {
      "bufferView": 1,
      "byteOffset": 2610656,
      "componentType": 5126,
      "count": 702,
      "max": [
        0.8989009261131287,
        0.9701195359230042
      ],
      "min": [
        0.20105814933776855,
        0.03870155289769173
      ],
      "type": "VEC2"
    },
    {
      "bufferView": 1,
      "byteOffset": 2616272,
      "componentType": 5126,
      "count": 702,
      "max": [
        0.8989009261131287,
        0.9701195359230042
      ],
      "min": [
        0.20105814933776855,
        0.03870155289769173
      ],
      "type": "VEC2"
    },
    {
      "bufferView": 1,
      "byteOffset": 2621888,
      "componentType": 5126,
      "count": 702,
      "max": [
        0.8989009261131287,
        0.9701195359230042
      ],
      "min": [
        0.20105814933776855,
        0.03870155289769173
      ],
      "type": "VEC2"
    },
    {
      "bufferView": 1,
      "byteOffset": 2627504,
      "componentType": 5126,
      "count": 702,
      "max": [
        0.8989009261131287,
        0.9701195359230042
      ],
      "min": [
        0.20105814933776855,
        0.03870155289769173
      ],
      "type": "VEC2"
    },
    {
      "bufferView": 0,
      "byteOffset": 351840,
      "componentType": 5125,
      "count": 1698,
      "type": "SCALAR"
    }
  ],
  "asset": {
    "extras": {
      "author": "colorsin (https://sketchfab.com/colorsin)",
      "license": "CC-BY-4.0 (http://creativecommons.org/licenses/by/4.0/)",
      "source": "https://sketchfab.com/3d-models/wipeout-spaceship-7c2f6c2789c143cfb79aff05c29c2cb7",
      "title": "Wipeout spaceship"
    },
    "generator": "Sketchfab-12.68.0",
    "version": "2.0"
  },
  "bufferViews": [
    {
      "buffer": 0,
      "byteLength": 358632,
      "name": "floatBufferViews",
      "target": 34963
    },
    {
      "buffer": 0,
      "byteLength": 2633120,
      "byteOffset": 358632,
      "byteStride": 8,
      "name": "floatBufferViews",
      "target": 34962
    },
    {
      "buffer": 0,
      "byteLength": 789936,
      "byteOffset": 2991752,
      "byteStride": 12,
      "name": "floatBufferViews",
      "target": 34962
    },
    {
      "buffer": 0,
      "byteLength": 526624,
      "byteOffset": 3781688,
      "byteStride": 16,
      "name": "floatBufferViews",
      "target": 34962
    }
  ],
  "buffers": [
    {
      "byteLength": 4308312,
      "uri": "scene.bin"
    }
  ],
  "images": [
    {
      "uri": "textures/material_baseColor.png"
    },
    {
      "uri": "textures/material_metallicRoughness.png"
    },
    {
      "uri": "textures/material_emissive.png"
    },
    {
      "uri": "textures/material_normal.png"
    },
    {
      "uri": "textures/Cockpit_baseColor.png"
    },
    {
      "uri": "textures/Cockpit_metallicRoughness.png"
    },
    {
      "uri": "textures/Cockpit_normal.png"
    }
  ],
  "materials": [
    {
      "doubleSided": true,
      "emissiveFactor": [
        1.0,
        1.0,
        1.0
      ],
      "emissiveTexture": {
        "index": 2
      },
      "name": "material",
      "normalTexture": {
        "index": 3
      },
      "occlusionTexture": {
        "index": 1
      },
      "pbrMetallicRoughness": {
        "baseColorTexture": {
          "index": 0
        },
        "metallicRoughnessTexture": {
          "index": 1
        }
      }
    },
    {
      "doubleSided": true,
      "name": "Cockpit",
      "normalTexture": {
        "index": 6
      },
      "occlusionTexture": {
        "index": 5
      },
      "pbrMetallicRoughness": {
        "baseColorTexture": {
          "index": 4
        },
        "metallicRoughnessTexture": {
          "index": 5
        }
      }
    }
  ],
  "meshes": [
    {
      "name": "Vaisseau_A_0",
      "primitives": [
        {
          "attributes": {
            "NORMAL": 1,
            "POSITION": 0,
            "TANGENT": 2,
            "TEXCOORD_0": 3,
            "TEXCOORD_1": 4,
            "TEXCOORD_2": 5,
            "TEXCOORD_3": 6,
            "TEXCOORD_4": 7,
            "TEXCOORD_5": 8,
            "TEXCOORD_6": 9,
            "TEXCOORD_7": 10,
            "TEXCOORD_8": 11,
            "TEXCOORD_9": 12
          },
          "indices": 13,
          "material": 0,
          "mode": 4
        }
      ]
    },
    {
      "name": "Vaisseau_Cockpit_0",
      "primitives": [
        {
          "attributes": {
            "NORMAL": 15,
            "POSITION": 14,
            "TANGENT": 16,
            "TEXCOORD_0": 17,
            "TEXCOORD_1": 18,
            "TEXCOORD_2": 19,
            "TEXCOORD_3": 20,
            "TEXCOORD_4": 21,
            "TEXCOORD_5": 22,
            "TEXCOORD_6": 23,
            "TEXCOORD_7": 24,
            "TEXCOORD_8": 25,
            "TEXCOORD_9": 26
          },
          "indices": 27,
          "material": 1,
          "mode": 4
        }
      ]
    }
  ],
  "nodes": [
    {
      "children": [
        1
      ],
      "matrix": [
        1.0,
        0.0,
        0.0,
        0.0,
        0.0,
        2.220446049250313e-16,
        -1.0,
        0.0,
        0.0,
        1.0,
        2.220446049250313e-16,
        0.0,
        0.0,
        0.0,
        0.0,
        1.0
      ],
      "name": "Sketchfab_model"
    },
    {
      "children": [
        2
      ],
      "matrix": [
        1.0,
        0.0,
        0.0,
        0.0,
        0.0,
        0.0,
        1.0,
        0.0,
        0.0,
        -1.0,
        0.0,
        0.0,
        0.0,
        0.0,
        0.0,
        1.0
      ],
      "name": "56c4c37267bf4cbaaf3efe477e9c0bf5.fbx"
    },
    {
      "children": [
        3
      ],
      "name": "RootNode"
    },
    {
      "children": [
        4,
        5
      ],
      "matrix": [
        0.822396993637085,
        0.0,
        0.0,
        0.0,
        0.0,
        0.8223969936370842,
        3.594811099217744e-08,
        0.0,
        0.0,
        -3.594811099217744e-08,
        0.8223969936370842,
        0.0,
        -8.988173484802246,
        37.27035140991211,
        73.48118591308594,
        1.0
      ],
      "name": "Vaisseau"
    },
    {
      "mesh": 0,
      "name": "Vaisseau_A_0"
    },
    {
      "children": [
        6
      ],
      "name": "Vaisseau"
    },
    {
      "mesh": 1,
      "name": "Vaisseau_Cockpit_0"
    }
  ],
  "samplers": [
    {
      "magFilter": 9729,
      "minFilter": 9987,
      "wrapS": 10497,
      "wrapT": 10497
    }
  ],
  "scene": 0,
  "scenes": [
    {
      "name": "Sketchfab_Scene",
      "nodes": [
        0
      ]
    }
  ],
  "textures": [
    {
      "sampler": 0,
      "source": 0
    },
    {
      "sampler": 0,
      "source": 1
    },
    {
      "sampler": 0,
      "source": 2
    },
    {
      "sampler": 0,
      "source": 3
    },
    {
      "sampler": 0,
      "source": 4
    },
    {
      "sampler": 0,
      "source": 5
    },
    {
      "sampler": 0,
      "source": 6
    }
  ]
}
